<?xml version="1.0" standalone="no"?>
<!DOCTYPE svg PUBLIC "-//W3C//DTD SVG 20010904//EN"
 "http://www.w3.org/TR/2001/REC-SVG-20010904/DTD/svg10.dtd">
<svg version="1.0" xmlns="http://www.w3.org/2000/svg"
 width="700.000000pt" height="700.000000pt" viewBox="0 0 700.000000 700.000000"
 preserveAspectRatio="xMidYMid meet">
<metadata>
Created by potrace 1.11, written by Peter Selinger 2001-2013
</metadata>
<g transform="translate(0.000000,700.000000) scale(0.100000,-0.100000)"
fill="#000000" stroke="none">
<path d="M45 3503 l0 -3498 875 -3 875 -2 -1 1965 c0 1081 3 1962 7 1958 7 -8
371 -612 413 -685 12 -20 68 -114 125 -209 57 -94 109 -181 115 -193 6 -12 23
-39 37 -61 14 -22 40 -65 56 -95 l31 -55 298 -5 c165 -3 578 -4 919 -2 l621 2
271 453 c149 248 323 544 388 657 65 113 120 208 124 212 4 4 7 -880 7 -1965
l0 -1972 875 -3 874 -2 2 3447 c2 1897 3 3454 3 3461 0 6 -1 30 -1 52 l-2 40
-877 0 -876 0 -20 -35 c-17 -32 -1415 -2366 -1453 -2425 -8 -14 -63 -105 -122
-203 l-107 -178 -34 53 c-29 45 -312 515 -359 596 -41 69 -1167 1946 -1207
2011 -26 41 -47 81 -49 89 -1 8 -6 18 -11 21 -4 3 -17 21 -27 39 l-19 32 -876
0 -876 0 1 -3497z"/>
</g>
</svg>
