<?xml version="1.0" standalone="no"?>
<!DOCTYPE svg PUBLIC "-//W3C//DTD SVG 20010904//EN"
 "http://www.w3.org/TR/2001/REC-SVG-20010904/DTD/svg10.dtd">
<svg version="1.0" xmlns="http://www.w3.org/2000/svg"
 width="700.000000pt" height="700.000000pt" viewBox="0 0 700.000000 700.000000"
 preserveAspectRatio="xMidYMid meet">
<metadata>
Created by potrace 1.11, written by Peter Selinger 2001-2013
</metadata>
<g transform="translate(0.000000,700.000000) scale(0.100000,-0.100000)"
fill="#000000" stroke="none">
<path d="M45 3503 l0 -3498 875 -3 875 -2 -1 1847 c-1 1331 2 1852 10 1862 7
10 7 13 0 8 -7 -4 -10 29 -11 104 0 122 4 125 52 32 17 -32 33 -60 36 -63 6
-5 474 -785 525 -875 15 -27 31 -52 34 -55 3 -3 11 -16 18 -30 7 -14 18 -34
25 -45 7 -11 32 -53 56 -93 24 -39 46 -72 50 -72 13 -1 1408 -1 1611 0 l215 0
26 43 c34 54 448 752 521 877 31 52 65 111 77 130 12 19 27 47 33 63 7 15 16
27 20 27 4 0 8 4 8 10 0 5 18 39 40 75 22 36 40 69 40 74 0 5 6 13 13 19 10 9
13 -357 13 -1961 l0 -1972 875 -3 874 -2 0 3222 c-1 1934 3 3228 8 3236 6 7 6
12 0 12 -10 0 -8 53 1 69 3 4 1 13 -4 21 -5 8 -5 21 1 31 5 10 5 20 0 23 -8 5
-6 58 4 84 2 6 -1 12 -8 12 -8 0 -8 3 2 9 9 6 10 10 2 16 -9 5 -9 10 0 21 6 8
7 14 2 14 -11 0 -11 29 1 48 4 6 3 12 -1 12 -5 0 -8 38 -7 85 l2 85 -878 0
c-787 0 -878 -2 -884 -16 -3 -8 -11 -12 -17 -8 -8 4 -9 3 -5 -4 7 -12 -57
-131 -76 -143 -5 -3 -9 -8 -8 -10 4 -8 -24 -59 -32 -59 -4 0 -8 -5 -8 -10 0
-8 -1228 -2066 -1319 -2210 -8 -14 -63 -105 -122 -202 -87 -145 -109 -175
-119 -163 -6 8 -8 20 -4 26 4 7 3 9 -3 6 -8 -5 -218 333 -374 601 -9 15 -226
377 -483 805 -257 428 -464 783 -460 789 4 7 3 8 -4 4 -14 -8 -36 30 -26 46 4
7 3 8 -4 4 -13 -8 -46 50 -37 65 4 5 2 8 -4 7 -6 -2 -21 15 -34 37 -12 22 -26
43 -31 46 -5 4 -5 12 -1 19 5 8 4 11 -2 7 -13 -8 -56 70 -47 85 4 6 3 8 -4 4
-10 -6 -79 101 -74 117 1 4 -3 7 -8 7 -6 0 -17 12 -23 28 -7 15 -26 48 -42 75
l-30 47 -875 0 -876 0 1 -3497z"/>
<path d="M6970 6936 c0 -2 8 -10 18 -17 15 -13 16 -12 3 4 -13 16 -21 21 -21
13z"/>
<path d="M2073 6635 c0 -8 4 -12 9 -9 5 3 6 10 3 15 -9 13 -12 11 -12 -6z"/>
</g>
</svg>
